<svg width="28" height="28" viewBox="0 0 28 28" fill="none" xmlns="http://www.w3.org/2000/svg">
<path d="M13.9999 25.6666C20.4432 25.6666 25.6666 20.4432 25.6666 13.9999C25.6666 7.5566 20.4432 2.33325 13.9999 2.33325C7.5566 2.33325 2.33325 7.5566 2.33325 13.9999C2.33325 20.4432 7.5566 25.6666 13.9999 25.6666Z" stroke="#333366" stroke-width="2" stroke-linecap="round" stroke-linejoin="round"/>
<path d="M14 19.8333H14.0117" stroke="#333366" stroke-width="2" stroke-linecap="round" stroke-linejoin="round"/>
<path d="M10.605 10.5002C10.8793 9.72046 11.4207 9.06297 12.1333 8.64416C12.8459 8.22536 13.6837 8.07227 14.4984 8.21201C15.313 8.35174 16.0519 8.77529 16.5842 9.40763C17.1165 10.04 17.4079 10.8403 17.4066 11.6668C17.4066 14.0002 13.9066 15.1668 13.9066 15.1668" stroke="#333366" stroke-width="2" stroke-linecap="round" stroke-linejoin="round"/>
</svg>
