<svg width="26" height="26" viewBox="0 0 26 26" fill="none" xmlns="http://www.w3.org/2000/svg">
<g clip-path="url(#clip0_4_2550)">
<path d="M13 26C20.1797 26 26 20.1797 26 13C26 5.8203 20.1797 0 13 0C5.8203 0 0 5.8203 0 13C0 20.1797 5.8203 26 13 26Z" fill="#039BE5"/>
<path d="M5.94838 12.7183L18.4825 7.88556C19.0643 7.6754 19.5724 8.02748 19.3839 8.90715L19.385 8.90606L17.2508 18.9605C17.0926 19.6733 16.669 19.8466 16.0765 19.5108L12.8265 17.1156L11.2589 18.6257C11.0855 18.7991 10.9393 18.9453 10.6035 18.9453L10.8342 15.6379L16.8575 10.1963C17.1197 9.96556 16.799 9.83556 16.4535 10.0652L9.00988 14.7517L5.80105 13.7507C5.10446 13.5297 5.0893 13.0541 5.94838 12.7183Z" fill="white"/>
</g>
<defs>
<clipPath id="clip0_4_2550">
<rect width="26" height="26" fill="white"/>
</clipPath>
</defs>
</svg>
