<svg width="14" height="14" viewBox="0 0 14 14" fill="none" xmlns="http://www.w3.org/2000/svg">
<path d="M1.64877 0.375579L12.9183 11.6451C13.1257 11.8525 13.0088 12.3059 12.6575 12.6571C12.3063 13.0084 11.8528 13.1252 11.6455 12.9179L0.375978 1.64837C0.16861 1.441 0.285472 0.987595 0.636733 0.636334C0.987994 0.285073 1.4414 0.168211 1.64877 0.375579Z" fill="white"/>
<path d="M11.6452 0.375579L0.375642 11.6451C0.168274 11.8525 0.285135 12.3059 0.636396 12.6571C0.987657 13.0084 1.4411 13.1252 1.64843 12.9179L12.918 1.64837C13.1253 1.441 13.0085 0.987595 12.6572 0.636334C12.306 0.285073 11.8525 0.168211 11.6452 0.375579Z" fill="white"/>
</svg>
