<svg width="26" height="26" viewBox="0 0 26 26" fill="none" xmlns="http://www.w3.org/2000/svg">
<path d="M13.0038 0C20.226 0.054964 26.0114 5.79463 26.0002 13.0163C25.989 20.2614 20.2189 26.0061 12.9844 26C11.2723 26.0056 9.57614 25.6716 7.9941 25.0174C6.41207 24.3631 4.97564 23.4017 3.76799 22.1887C2.56034 20.9757 1.60549 19.5352 0.95873 17.9508C0.311974 16.3664 -0.0138297 14.6694 0.000189808 12.9583C0.0327776 5.73661 5.78555 0.0641246 13.0038 0ZM13.0129 4.79815C12.4426 4.8694 11.8632 4.89994 11.3031 5.01801C10.107 5.27357 8.98414 5.79609 8.01855 6.5465C7.05296 7.2969 6.26959 8.25578 5.72702 9.35143C5.18445 10.4471 4.89672 11.6511 4.88534 12.8736C4.87396 14.0961 5.13923 15.3053 5.66131 16.4108C5.71705 16.5388 5.73473 16.6802 5.71222 16.818C5.46069 18.0954 5.19184 19.3687 4.9403 20.6461C4.85679 21.0705 5.04214 21.2354 5.46883 21.1357C6.69088 20.8476 7.92005 20.5514 9.14922 20.2725C9.30115 20.2396 9.45952 20.2534 9.60342 20.3122C11.3795 21.1001 13.2064 21.2741 15.0863 20.7733C19.2056 19.6761 21.7403 15.6505 20.9664 11.4356C20.2657 7.60335 16.8685 4.82156 13.0129 4.79815Z" fill="#27A71A"/>
<path d="M7.15793 18.8467C7.29133 18.2064 7.39419 17.5998 7.54796 17.0054C7.60745 16.8061 7.62558 16.5968 7.60124 16.3902C7.5769 16.1837 7.5106 15.9843 7.40641 15.8043C6.87054 14.8237 6.62937 13.7093 6.71188 12.595C6.90231 9.61576 9.01747 7.28081 11.8506 6.7617C13.4869 6.44275 15.183 6.78657 16.5657 7.71751C17.9484 8.64845 18.9045 10.0903 19.2236 11.7258C19.5427 13.3613 19.1987 15.0565 18.2673 16.4385C17.3359 17.8205 15.8933 18.7761 14.257 19.095C12.8 19.4035 11.2805 19.1739 9.97983 18.4487C9.872 18.3856 9.75218 18.3456 9.62803 18.3314C9.50388 18.3172 9.37813 18.3291 9.25882 18.3662C8.6478 18.5321 8.02659 18.6645 7.40844 18.809C7.33207 18.8304 7.2618 18.8304 7.15793 18.8467ZM15.2183 16.8965C16.1501 16.9728 16.7866 16.3784 17.2805 15.5732C17.4985 15.218 17.3284 14.8119 16.9333 14.6684C16.8375 14.6338 16.7398 14.6063 16.642 14.5778C16.3497 14.4943 16.0483 14.4353 15.7662 14.3254C15.257 14.1218 14.8497 14.192 14.479 14.6358C14.1735 15.0022 13.9759 15.0185 13.5686 14.7763C12.6538 14.2324 11.8506 13.5198 11.2019 12.6764C10.9514 12.3517 10.9697 12.1624 11.2212 11.8296C11.3088 11.7149 11.3954 11.5999 11.4809 11.4845C11.5486 11.3963 11.5909 11.2913 11.6033 11.1808C11.6157 11.0703 11.5977 10.9585 11.5512 10.8575C11.3475 10.3669 11.1296 9.87836 10.9004 9.39692C10.7059 8.98978 10.2813 8.88799 9.92993 9.17605C9.72689 9.35258 9.53918 9.54598 9.36881 9.75419C9.04923 10.1227 8.88241 10.5993 8.90239 11.0866C8.91737 11.7421 9.10836 12.3816 9.45537 12.938C10.3547 14.4167 11.6467 15.6171 13.1877 16.4058C13.8111 16.7412 14.5105 16.9101 15.2183 16.8965Z" fill="#27A71A"/>
</svg>
