<svg width="26" height="26" viewBox="0 0 26 26" fill="none" xmlns="http://www.w3.org/2000/svg">
<path d="M0 12.9848C0 5.8291 5.85033 -0.0217873 13.0066 -0.000429996C14.7134 -0.000430127 16.4034 0.335796 17.9801 0.989042C19.5569 1.64229 20.9895 2.59975 22.1961 3.80675C23.4027 5.01374 24.3597 6.44661 25.0124 8.0235C25.6651 9.6004 26.0007 11.2904 26 12.997C26.0183 20.165 20.1436 26.0148 12.9812 25.9996C5.8188 25.9843 0 20.1477 0 12.9848ZM13.029 19.1632L13.0341 19.2262C14.0186 19.1347 15.0052 19.0595 15.9836 18.9466C16.6295 18.8723 17.2693 18.7544 17.8541 18.4309C19.7133 17.3997 20.6847 15.8142 20.7874 13.7028C20.8342 12.7326 20.8728 11.7573 20.8281 10.7881C20.785 10.0625 20.6733 9.34262 20.4945 8.6381C20.2656 7.69228 19.6462 6.97426 18.9373 6.33863C18.3494 5.81181 17.6944 5.35924 16.9112 5.23008C15.829 5.05312 14.7326 4.93413 13.6372 4.86192C12.8758 4.82278 12.1126 4.84012 11.3538 4.91379C10.5789 4.96338 9.80915 5.07528 9.05214 5.24839C7.66889 5.59316 6.67112 6.50135 5.9317 7.68821C5.71808 8.03394 5.56116 8.41162 5.46688 8.80692C5.11352 10.2921 5.0138 11.8264 5.17193 13.3448C5.24516 14.073 5.32144 14.8246 5.55944 15.5091C6.0924 17.0397 7.20815 18.0577 8.69921 18.6618C8.87008 18.731 8.92907 18.8103 8.92501 18.9903C8.9128 19.4398 8.92501 19.8883 8.9189 20.3378C8.9189 20.6847 9.04197 20.9481 9.36948 21.0904C9.66545 21.2186 9.94007 21.1454 10.2137 20.8636C10.6683 20.3958 11.1291 19.931 11.5684 19.45C11.7637 19.2364 11.96 19.1113 12.2672 19.1551C12.5206 19.1751 12.7752 19.1778 13.029 19.1632Z" fill="#6F3EA9"/>
<path d="M9.55463 18.9166C9.55463 18.5017 9.55463 18.0857 9.55463 17.6708C9.55463 17.4959 9.50174 17.4135 9.32477 17.3403C7.93643 16.7707 6.98545 15.833 6.74948 14.278C6.50531 12.7621 6.50703 11.2168 6.75457 9.70145C6.99867 8.26238 8.16324 6.89245 9.47835 6.6382C10.3852 6.46685 11.3027 6.35845 12.2245 6.31377C13.6041 6.24363 14.9872 6.33752 16.3448 6.59345C17.2764 6.76736 17.9396 7.33181 18.5366 8.01117C19.0278 8.57358 19.1855 9.25498 19.2913 9.96689C19.531 11.5782 19.4807 13.2194 19.1428 14.813C19.1362 14.8547 19.1263 14.8959 19.1133 14.936C18.621 16.191 17.7494 17.0718 16.4332 17.383C15.2209 17.6677 13.9709 17.7349 12.7239 17.7074C12.6283 17.7019 12.5327 17.7185 12.4445 17.7559C12.3563 17.7933 12.2779 17.8505 12.2153 17.923C11.4546 18.7193 10.6836 19.5065 9.91061 20.2916C9.82871 20.3559 9.73879 20.4092 9.64312 20.4503C9.60243 20.3571 9.57405 20.259 9.5587 20.1584C9.54954 19.7465 9.55463 19.3306 9.55463 18.9166ZM13.6535 14.0482C13.5141 14.019 13.3763 13.9827 13.2406 13.9394C12.1645 13.5214 11.5024 12.7189 11.1138 11.6562C11.0742 11.5663 11.0651 11.4658 11.0881 11.3703C11.1111 11.2747 11.1648 11.1894 11.241 11.1273C11.3356 11.0429 11.4373 10.9656 11.5339 10.8832C11.8014 10.6534 11.8919 10.3381 11.7017 10.0442C11.3762 9.53568 11.0203 9.05666 10.6572 8.57968C10.5901 8.48288 10.4875 8.41642 10.3718 8.39471C10.256 8.37301 10.1364 8.39781 10.0388 8.46374C9.71711 8.66187 9.42008 8.89743 9.15389 9.16549C8.85589 9.48178 8.77553 9.8774 9.00743 10.2842C9.05617 10.3829 9.09797 10.4848 9.13254 10.5893C10.2066 13.2875 12.1442 15.0937 14.8364 16.131C15.2209 16.2795 15.5616 16.2541 15.8484 15.9958C16.1231 15.7492 16.3645 15.4678 16.5665 15.1588C16.7699 14.8435 16.7119 14.6157 16.4119 14.3848C15.984 14.0546 15.5453 13.7373 15.0958 13.4329C14.7825 13.2213 14.4662 13.2824 14.2109 13.5681C14.1419 13.664 14.0661 13.7548 13.9841 13.8397C13.8797 13.9177 13.7692 13.9871 13.6535 14.0472V14.0482ZM13.1246 7.94608C13.0656 7.94608 13.0066 7.94608 12.9466 7.94608C12.7788 7.94608 12.6364 8.02134 12.6568 8.18407C12.668 8.2756 12.8144 8.37933 12.9232 8.42103C13.0614 8.46049 13.2047 8.47934 13.3484 8.47697C14.7184 8.57867 15.9522 9.6028 16.2858 10.9432C16.3803 11.3256 16.3976 11.7284 16.4444 12.122C16.4648 12.2908 16.5238 12.4352 16.7129 12.4271C16.9021 12.4189 16.9479 12.2837 16.9337 12.122C16.9174 11.9185 16.9001 11.7151 16.8838 11.5117C16.798 10.5615 16.3683 9.67533 15.6754 9.0194C14.9825 8.36347 14.0741 7.98291 13.1206 7.94913L13.1246 7.94608ZM15.9166 11.5789H15.9277C15.9064 11.4283 15.8881 11.2738 15.8616 11.1283C15.7481 10.5372 15.4375 10.002 14.9804 9.61015C14.5234 9.21835 13.947 8.99311 13.3453 8.97124C13.2318 8.96653 13.1208 9.00547 13.0351 9.08006C12.9019 9.22956 13.0351 9.42279 13.2741 9.45127C13.8417 9.51839 14.3655 9.67806 14.7855 10.092C14.9913 10.2945 15.1541 10.5364 15.2641 10.8032C15.3742 11.07 15.4294 11.3563 15.4263 11.645C15.4263 11.826 15.4477 12.0192 15.6684 12.0202C15.9094 12.0202 15.9247 11.8168 15.9166 11.6307C15.9155 11.6155 15.9166 11.5941 15.9166 11.5819V11.5789ZM13.6413 10.032C13.4786 10.0137 13.3209 10.032 13.2955 10.2283C13.2701 10.4246 13.4237 10.4968 13.6006 10.5191C13.6169 10.5191 13.6342 10.5191 13.6505 10.5191C13.8206 10.5261 13.9838 10.5886 14.115 10.6972C14.2461 10.8057 14.3381 10.9543 14.3767 11.1202C14.4113 11.2412 14.4031 11.3805 14.4631 11.4843C14.4891 11.5315 14.5255 11.5722 14.5696 11.6032C14.6136 11.6342 14.6642 11.6548 14.7174 11.6633C14.7866 11.6633 14.8944 11.5138 14.9005 11.4243C14.9142 11.2491 14.8921 11.073 14.8354 10.9066C14.7787 10.7403 14.6887 10.5873 14.5708 10.457C14.4529 10.3266 14.3097 10.2217 14.1499 10.1486C13.9901 10.0756 13.817 10.0359 13.6413 10.032Z" fill="#6F3EA9"/>
</svg>
