<svg width="28" height="28" viewBox="0 0 28 28" fill="none" xmlns="http://www.w3.org/2000/svg">
<path d="M20.5333 25.1999C21.5642 25.1999 22.4 24.3642 22.4 23.3332C22.4 22.3023 21.5642 21.4666 20.5333 21.4666C19.5024 21.4666 18.6666 22.3023 18.6666 23.3332C18.6666 24.3642 19.5024 25.1999 20.5333 25.1999Z" stroke="#333366" stroke-width="2" stroke-linecap="round" stroke-linejoin="round"/>
<path d="M10.2667 25.1999C11.2976 25.1999 12.1334 24.3642 12.1334 23.3332C12.1334 22.3023 11.2976 21.4666 10.2667 21.4666C9.23576 21.4666 8.40002 22.3023 8.40002 23.3332C8.40002 24.3642 9.23576 25.1999 10.2667 25.1999Z" stroke="#333366" stroke-width="2" stroke-linecap="round" stroke-linejoin="round"/>
<path d="M3 4H7L10 15M10 15C9.06667 16.8667 10.1333 19 12 19H22M10 15L21.2199 14.1369C22.3057 14.0534 23.2445 13.348 23.6269 12.3283L26 6H7.59757" stroke="#333366" stroke-width="2" stroke-linecap="round" stroke-linejoin="round"/>
</svg>
